<svg width="64" height="64" xmlns="http://www.w3.org/2000/svg" xmlns:xlink="http://www.w3.org/1999/xlink">
  <defs/>
  <g>
    <path stroke="none" fill="#FFFFFF" d="M40 11 L38.95 11 36 11 Q31 11 31 16 L31 31 16 31 Q11 31 11 36 L11 38.95 11 40 11 48 Q11 53 16 53 L48 53 Q53 53 53 48 L53 16 Q53 11 48 11 L40 11 M48 8 Q56 8 56 16 L56 48 Q56 56 48 56 L16 56 Q8 56 8 48 L8 40 8 38.95 8 36 Q8 28 16 28 L28 28 28 16 Q28 8 36 8 L38.95 8 40 8 48 8 M20 43 Q20.4 43 20.7 43.3 L21 44 20.7 44.7 20 45 17 45 17 47 20 47 Q20.4 47 20.7 47.3 L21 48 20.7 48.7 20 49 16 49 15.3 48.7 Q15 48.4 15 48 L15 40 Q15 39.6 15.3 39.3 15.6 39 16 39 L20 39 Q20.4 39 20.7 39.3 L21 40 20.7 40.7 20 41 17 41 17 43 20 43 M22 41.8 Q22 40.65 22.85 39.8 L22.9 39.75 Q23.75 39 25 39 26.15 39 27.05 39.75 L27.1 39.8 Q28 40.65 28 41.8 L28 48 27.7 48.7 Q27.4 49 27 49 L26.3 48.7 26 48 26 41.8 25.75 41.25 25.75 41.3 Q25.45 41 25 41 24.55 41 24.2 41.3 L24.25 41.2 24 41.8 24 48 23.7 48.7 23 49 Q22.6 49 22.3 48.7 22 48.4 22 48 L22 41.8 M30 41 L29.3 40.7 Q29 40.4 29 40 29 39.6 29.3 39.3 29.6 39 30 39 L34 39 Q34.4 39 34.7 39.3 L35 40 34.7 40.7 Q34.4 41 34 41 L33 41 33 48 32.7 48.7 32 49 Q31.6 49 31.3 48.7 31 48.4 31 48 L31 41 30 41 M36 40 Q36 39.6 36.3 39.3 36.6 39 37 39 L41 39 Q41.4 39 41.7 39.3 L42 40 41.7 40.7 41 41 38 41 38 43 41 43 Q41.4 43 41.7 43.3 L42 44 41.7 44.7 41 45 38 45 38 47 41 47 Q41.4 47 41.7 47.3 L42 48 41.7 48.7 41 49 37 49 36.3 48.7 Q36 48.4 36 48 L36 40 M48.1 44.1 L48.1 44.15 47.45 44.65 48.9 47.55 Q49.1 47.95 48.95 48.35 L48.45 48.9 47.7 48.95 Q47.3 48.8 47.1 48.45 L45.4 45 45 45 45 48 44.7 48.7 44 49 Q43.6 49 43.3 48.7 43 48.4 43 48 L43 40 Q43 39.6 43.3 39.3 43.6 39 44 39 L46.05 39 Q47.25 39 48.1 39.85 49 40.75 49 42 49 43.25 48.1 44.1 M46.1 43 L46.45 42.9 46.7 42.7 46.75 42.7 47 42 46.7 41.25 Q46.45 41 46.05 41 L45 41 45 43 46.1 43"/>
  </g>
</svg>