<svg width="64" height="64" xmlns="http://www.w3.org/2000/svg" xmlns:xlink="http://www.w3.org/1999/xlink">
  <defs/>
  <g>
    <path stroke="none" fill="#FFFFFF" d="M11 22 L11 42 Q11 47 16 47 L48 47 Q53 47 53 42 L53 22 Q53 17 48 17 L16 17 Q11 17 11 22 M41.9 30.55 L41.95 31.35 41.45 31.9 40.7 31.95 Q40.3 31.8 40.1 31.45 L38.4 28 38 28 38 31 37.7 31.7 37 32 36.3 31.7 Q36 31.4 36 31 L36 23 Q36 22.6 36.3 22.3 36.6 22 37 22 37.4 22 37.7 22.3 L38 23 38 26 38.4 26 40.1 22.55 Q40.3 22.2 40.7 22.05 L41.45 22.1 41.95 22.7 41.9 23.45 40.15 27 41.9 30.55 M16 14 L48 14 Q56 14 56 22 L56 42 Q56 50 48 50 L16 50 Q8 50 8 42 L8 22 Q8 14 16 14 M25.15 37 L25.5 36.9 25.75 36.7 25.8 36.7 26.05 36 25.75 35.25 Q25.5 35 25.1 35 L24.05 35 24.05 37 25.15 37 M25.15 39 L24.05 39 24.05 42 23.75 42.7 23.05 43 Q22.65 43 22.35 42.7 22.05 42.4 22.05 42 L22.05 34 Q22.05 33.6 22.35 33.3 22.65 33 23.05 33 L25.1 33 Q26.3 33 27.15 33.85 28.05 34.75 28.05 36 28.05 37.25 27.15 38.1 L27.15 38.15 26.5 38.65 26.4 38.7 25.15 39 M31 35.8 L31 38 33 38 33 35.8 32.75 35.25 32.75 35.3 Q32.45 35 32 35 31.55 35 31.2 35.3 L31.25 35.2 Q31 35.45 31 35.8 M29 35.8 Q29 34.65 29.85 33.8 L29.9 33.75 Q30.75 33 32 33 33.15 33 34.05 33.75 L34.1 33.8 Q35 34.65 35 35.8 L35 42 34.7 42.7 Q34.4 43 34 43 L33.3 42.7 Q33 42.4 33 42 L33 40 31 40 31 42 30.7 42.7 Q30.4 43 30 43 L29.3 42.7 Q29 42.4 29 42 L29 35.8 M18 35 Q17.6 35 17.3 35.3 17 35.6 17 36 17 36.4 17.3 36.7 17.6 37 17.95 37 L18.05 37 Q19.2 37 20.1 37.9 21 38.8 21 40 21 41.2 20.1 42.1 19.2 43 18 43 L16 43 15.3 42.7 Q15 42.4 15 42 15 41.6 15.3 41.3 15.6 41 16 41 L18 41 Q18.4 41 18.7 40.7 L19 40 18.7 39.3 Q18.4 39 18.05 39 L17.95 39 Q16.8 39 15.9 38.1 15 37.2 15 36 15 34.8 15.9 33.9 16.8 33 18 33 L20 33 Q20.4 33 20.7 33.3 L21 34 20.7 34.7 20 35 18 35 M17 30 L18.1 30 18.45 29.9 18.7 29.7 18.75 29.7 19 29 18.7 28.25 Q18.45 28 18.2 28 L17 28 17 30 M18.45 25.9 L18.7 25.7 18.75 25.7 19 25 18.7 24.25 18.05 24 17 24 17 26 18.2 26 18.45 25.9 M21 25 Q21 26.2 20.25 27 21 27.85 21 29 21 30.25 20.1 31.1 L20.1 31.15 19.45 31.65 19.35 31.7 18.1 32 16 32 15.3 31.7 Q15 31.4 15 31 L15 23 Q15 22.6 15.3 22.3 15.6 22 16 22 L18.05 22 Q19.25 22 20.1 22.85 21 23.75 21 25 M34.1 31.25 L34.05 31.3 Q33.15 32 32 32 30.75 32 29.9 31.3 L29.85 31.2 Q29 30.35 29 29.25 L29 24.8 Q29 23.65 29.85 22.8 L29.9 22.75 Q30.75 22 32 22 33.15 22 34.05 22.75 L34.1 22.8 Q35 23.65 35 24.8 L34.7 25.5 Q34.4 25.8 34 25.8 L33.3 25.5 Q33 25.2 33 24.8 L32.75 24.25 32.75 24.3 Q32.45 24 32 24 31.55 24 31.2 24.3 L31.25 24.2 Q31 24.45 31 24.8 L31 29.25 31.2 29.75 32 30 32.75 29.75 32.75 29.8 33 29.25 Q33 28.85 33.3 28.55 33.6 28.25 34 28.25 34.4 28.25 34.7 28.55 L35 29.25 Q35 30.35 34.1 31.25 M24.05 24.8 L24.05 27 26.05 27 26.05 24.8 25.8 24.25 25.8 24.3 Q25.5 24 25.05 24 24.6 24 24.25 24.3 L24.3 24.2 Q24.05 24.45 24.05 24.8 M22.05 24.8 Q22.05 23.65 22.9 22.8 L22.95 22.75 Q23.8 22 25.05 22 26.2 22 27.1 22.75 L27.15 22.8 Q28.05 23.65 28.05 24.8 L28.05 31 27.75 31.7 27.05 32 Q26.65 32 26.35 31.7 26.05 31.4 26.05 31 L26.05 29 24.05 29 24.05 31 23.75 31.7 23.05 32 Q22.65 32 22.35 31.7 22.05 31.4 22.05 31 L22.05 24.8 M41.1 42.25 L41.05 42.3 Q40.15 43 39 43 37.75 43 36.9 42.3 L36.85 42.2 Q36 41.35 36 40.25 L36 35.8 Q36 34.65 36.85 33.8 L36.9 33.75 Q37.75 33 39 33 40.15 33 41.05 33.75 L41.1 33.8 Q42 34.65 42 35.8 L41.7 36.5 41 36.8 40.3 36.5 Q40 36.2 40 35.8 L39.75 35.25 39.75 35.3 Q39.45 35 39 35 38.55 35 38.2 35.3 L38.25 35.2 Q38 35.45 38 35.8 L38 40.25 38.2 40.75 39 41 39.75 40.75 39.75 40.8 40 40.25 Q40 39.85 40.3 39.55 40.6 39.25 41 39.25 41.4 39.25 41.7 39.55 L42 40.25 Q42 41.35 41.1 42.25 M48 33 Q48.4 33 48.7 33.3 L49 34 48.7 34.7 Q48.4 35 48 35 L45 35 45 37 48 37 Q48.4 37 48.7 37.3 L49 38 48.7 38.7 Q48.4 39 48 39 L45 39 45 41 48 41 Q48.4 41 48.7 41.3 L49 42 48.7 42.7 Q48.4 43 48 43 L44 43 Q43.6 43 43.3 42.7 43 42.4 43 42 L43 34 Q43 33.6 43.3 33.3 43.6 33 44 33 L48 33"/>
  </g>
</svg>