<svg width="64" height="64" xmlns="http://www.w3.org/2000/svg" xmlns:xlink="http://www.w3.org/1999/xlink">
  <defs/>
  <g>
    <path stroke="none" fill="#FFFFFF" d="M34 22 Q36.45 22 38.2 23.7 L38.25 23.75 Q40 25.5 40 28 40 30.3 38.45 32 40 33.65 40 36 40 38.45 38.25 40.2 L38.2 40.25 Q36.45 42 34 42 L25 42 24 41 24 23 25 22 34 22 M11 16 L11 48 Q11 53 16 53 L48 53 Q53 53 53 48 L53 16 Q53 11 48 11 L16 11 Q11 11 11 16 M28 26 L28 30 34.15 30 Q34.8 29.95 35.35 29.45 L35.45 29.35 Q36 28.8 36 28 36 27.15 35.45 26.6 L35.4 26.6 Q34.8 26 34 26 L28 26 M16 8 L48 8 Q56 8 56 16 L56 48 Q56 56 48 56 L16 56 Q8 56 8 48 L8 16 Q8 8 16 8 M28 38 L34 38 Q34.8 38 35.35 37.45 L35.45 37.35 Q36 36.8 36 36 36 35.15 35.45 34.6 L35.4 34.6 Q34.85 34.05 34.15 34 L28 34 28 38"/>
  </g>
</svg>