<svg width="64" height="64" xmlns="http://www.w3.org/2000/svg" xmlns:xlink="http://www.w3.org/1999/xlink">
  <defs/>
  <g>
    <path stroke="none" fill="#FFFFFF" d="M40 11 L38.95 11 36 11 Q31 11 31 16 L31 31 16 31 Q11 31 11 36 L11 38.95 11 40 11 48 Q11 53 16 53 L48 53 Q53 53 53 48 L53 16 Q53 11 48 11 L40 11 M48 8 Q56 8 56 16 L56 48 Q56 56 48 56 L16 56 Q8 56 8 48 L8 40 8 38.95 8 36 Q8 28 16 28 L28 28 28 16 Q28 8 36 8 L38.95 8 40 8 48 8 M29 41 L35 35 37 35 37 39 43 39 43 29 47 29 47 40.1 Q46.95 41.3 46.1 42.1 45.3 42.95 44.1 43 L37 43 37 47 35 47 29 41"/>
  </g>
</svg>