<svg width="64" height="64" xmlns="http://www.w3.org/2000/svg" xmlns:xlink="http://www.w3.org/1999/xlink">
  <defs/>
  <g>
    <path stroke="none" fill="#FFFFFF" d="M25 22 L24 23 24 42 28 42 28 36 34 36 34.5 36 36 42 40 42 38.1 34.35 38.2 34.25 38.25 34.2 Q40 32.45 40 30 L40 28 Q40 25.5 38.25 23.75 L38.2 23.7 37 22.8 Q35.75 22.05 34.2 22 L25 22 M28 26 L34 26 Q34.8 26 35.4 26.6 L35.45 26.6 Q36 27.15 36 28 L36 30 Q36 30.8 35.45 31.35 L35.35 31.45 Q34.8 32 34 32 L28 32 28 26 M16 8 L48 8 Q56 8 56 16 L56 48 Q56 56 48 56 L16 56 Q8 56 8 48 L8 16 Q8 8 16 8"/>
  </g>
</svg>