<svg width="64" height="64" xmlns="http://www.w3.org/2000/svg" xmlns:xlink="http://www.w3.org/1999/xlink">
  <defs/>
  <g>
    <path stroke="none" fill="#FFFFFF" d="M41.9 30.55 L40.15 27 41.9 23.45 41.95 22.7 41.45 22.1 40.7 22.05 Q40.3 22.2 40.1 22.55 L38.4 26 38 26 38 23 37.7 22.3 Q37.4 22 37 22 36.6 22 36.3 22.3 36 22.6 36 23 L36 31 Q36 31.4 36.3 31.7 L37 32 37.7 31.7 38 31 38 28 38.4 28 40.1 31.45 Q40.3 31.8 40.7 31.95 L41.45 31.9 41.95 31.35 41.9 30.55 M16 14 L48 14 Q56 14 56 22 L56 42 Q56 50 48 50 L16 50 Q8 50 8 42 L8 22 Q8 14 16 14 M48 33 L44 33 Q43.6 33 43.3 33.3 43 33.6 43 34 L43 42 Q43 42.4 43.3 42.7 43.6 43 44 43 L48 43 Q48.4 43 48.7 42.7 L49 42 48.7 41.3 Q48.4 41 48 41 L45 41 45 39 48 39 Q48.4 39 48.7 38.7 L49 38 48.7 37.3 Q48.4 37 48 37 L45 37 45 35 48 35 Q48.4 35 48.7 34.7 L49 34 48.7 33.3 Q48.4 33 48 33 M41.1 42.25 Q42 41.35 42 40.25 L41.7 39.55 Q41.4 39.25 41 39.25 40.6 39.25 40.3 39.55 40 39.85 40 40.25 L39.75 40.8 39.75 40.75 39 41 38.2 40.75 38 40.25 38 35.8 Q38 35.45 38.25 35.2 L38.2 35.3 Q38.55 35 39 35 39.45 35 39.75 35.3 L39.75 35.25 40 35.8 Q40 36.2 40.3 36.5 L41 36.8 41.7 36.5 42 35.8 Q42 34.65 41.1 33.8 L41.05 33.75 Q40.15 33 39 33 37.75 33 36.9 33.75 L36.85 33.8 Q36 34.65 36 35.8 L36 40.25 Q36 41.35 36.85 42.2 L36.9 42.3 Q37.75 43 39 43 40.15 43 41.05 42.3 L41.1 42.25 M22.05 24.8 L22.05 31 Q22.05 31.4 22.35 31.7 22.65 32 23.05 32 L23.75 31.7 24.05 31 24.05 29 26.05 29 26.05 31 Q26.05 31.4 26.35 31.7 26.65 32 27.05 32 L27.75 31.7 28.05 31 28.05 24.8 Q28.05 23.65 27.15 22.8 L27.1 22.75 Q26.2 22 25.05 22 23.8 22 22.95 22.75 L22.9 22.8 Q22.05 23.65 22.05 24.8 M24.05 24.8 Q24.05 24.45 24.3 24.2 L24.25 24.3 Q24.6 24 25.05 24 25.5 24 25.8 24.3 L25.8 24.25 26.05 24.8 26.05 27 24.05 27 24.05 24.8 M34.1 31.25 Q35 30.35 35 29.25 L34.7 28.55 Q34.4 28.25 34 28.25 33.6 28.25 33.3 28.55 33 28.85 33 29.25 L32.75 29.8 32.75 29.75 32 30 31.2 29.75 31 29.25 31 24.8 Q31 24.45 31.25 24.2 L31.2 24.3 Q31.55 24 32 24 32.45 24 32.75 24.3 L32.75 24.25 33 24.8 Q33 25.2 33.3 25.5 L34 25.8 Q34.4 25.8 34.7 25.5 L35 24.8 Q35 23.65 34.1 22.8 L34.05 22.75 Q33.15 22 32 22 30.75 22 29.9 22.75 L29.85 22.8 Q29 23.65 29 24.8 L29 29.25 Q29 30.35 29.85 31.2 L29.9 31.3 Q30.75 32 32 32 33.15 32 34.05 31.3 L34.1 31.25 M21 25 Q21 23.75 20.1 22.85 19.25 22 18.05 22 L16 22 Q15.6 22 15.3 22.3 15 22.6 15 23 L15 31 Q15 31.4 15.3 31.7 L16 32 18.1 32 19.35 31.7 19.45 31.65 20.1 31.15 20.1 31.1 Q21 30.25 21 29 21 27.85 20.25 27 21 26.2 21 25 M18.45 25.9 L18.2 26 17 26 17 24 18.05 24 18.7 24.25 19 25 18.75 25.7 18.7 25.7 18.45 25.9 M17 30 L17 28 18.2 28 Q18.45 28 18.7 28.25 L19 29 18.75 29.7 18.7 29.7 18.45 29.9 18.1 30 17 30 M18 35 L20 35 20.7 34.7 21 34 20.7 33.3 Q20.4 33 20 33 L18 33 Q16.8 33 15.9 33.9 15 34.8 15 36 15 37.2 15.9 38.1 16.8 39 17.95 39 L18.05 39 Q18.4 39 18.7 39.3 L19 40 18.7 40.7 Q18.4 41 18 41 L16 41 Q15.6 41 15.3 41.3 15 41.6 15 42 15 42.4 15.3 42.7 L16 43 18 43 Q19.2 43 20.1 42.1 21 41.2 21 40 21 38.8 20.1 37.9 19.2 37 18.05 37 L17.95 37 Q17.6 37 17.3 36.7 17 36.4 17 36 17 35.6 17.3 35.3 17.6 35 18 35 M29 35.8 L29 42 Q29 42.4 29.3 42.7 L30 43 Q30.4 43 30.7 42.7 L31 42 31 40 33 40 33 42 Q33 42.4 33.3 42.7 L34 43 Q34.4 43 34.7 42.7 L35 42 35 35.8 Q35 34.65 34.1 33.8 L34.05 33.75 Q33.15 33 32 33 30.75 33 29.9 33.75 L29.85 33.8 Q29 34.65 29 35.8 M31 35.8 Q31 35.45 31.25 35.2 L31.2 35.3 Q31.55 35 32 35 32.45 35 32.75 35.3 L32.75 35.25 33 35.8 33 38 31 38 31 35.8 M25.15 39 L26.4 38.7 26.5 38.65 27.15 38.15 27.15 38.1 Q28.05 37.25 28.05 36 28.05 34.75 27.15 33.85 26.3 33 25.1 33 L23.05 33 Q22.65 33 22.35 33.3 22.05 33.6 22.05 34 L22.05 42 Q22.05 42.4 22.35 42.7 22.65 43 23.05 43 L23.75 42.7 24.05 42 24.05 39 25.15 39 M25.15 37 L24.05 37 24.05 35 25.1 35 Q25.5 35 25.75 35.25 L26.05 36 25.8 36.7 25.75 36.7 25.5 36.9 25.15 37"/>
  </g>
</svg>