<svg width="64" height="64" xmlns="http://www.w3.org/2000/svg" xmlns:xlink="http://www.w3.org/1999/xlink">
  <defs/>
  <g>
    <path stroke="none" fill="#FFFFFF" d="M48 8 Q56 8 56 16 L56 48 Q56 56 48 56 L16 56 Q8 56 8 48 L8 40 8 38.95 8 36 Q8 28 16 28 L28 28 28 16 Q28 8 36 8 L38.95 8 40 8 48 8 M46.1 43 L45 43 45 41 46.05 41 Q46.45 41 46.7 41.25 L47 42 46.75 42.7 46.7 42.7 46.45 42.9 46.1 43 M48.1 44.1 Q49 43.25 49 42 49 40.75 48.1 39.85 47.25 39 46.05 39 L44 39 Q43.6 39 43.3 39.3 43 39.6 43 40 L43 48 Q43 48.4 43.3 48.7 43.6 49 44 49 L44.7 48.7 45 48 45 45 45.4 45 47.1 48.45 Q47.3 48.8 47.7 48.95 L48.45 48.9 48.95 48.35 Q49.1 47.95 48.9 47.55 L47.45 44.65 48.1 44.15 48.1 44.1 M30 41 L31 41 31 48 Q31 48.4 31.3 48.7 31.6 49 32 49 L32.7 48.7 33 48 33 41 34 41 Q34.4 41 34.7 40.7 L35 40 34.7 39.3 Q34.4 39 34 39 L30 39 Q29.6 39 29.3 39.3 29 39.6 29 40 29 40.4 29.3 40.7 L30 41 M36 40 L36 48 Q36 48.4 36.3 48.7 L37 49 41 49 41.7 48.7 42 48 41.7 47.3 Q41.4 47 41 47 L38 47 38 45 41 45 41.7 44.7 42 44 41.7 43.3 Q41.4 43 41 43 L38 43 38 41 41 41 41.7 40.7 42 40 41.7 39.3 Q41.4 39 41 39 L37 39 Q36.6 39 36.3 39.3 36 39.6 36 40 M22 41.8 L22 48 Q22 48.4 22.3 48.7 22.6 49 23 49 L23.7 48.7 24 48 24 41.8 24.25 41.2 24.2 41.3 Q24.55 41 25 41 25.45 41 25.75 41.3 L25.75 41.25 26 41.8 26 48 26.3 48.7 27 49 Q27.4 49 27.7 48.7 L28 48 28 41.8 Q28 40.65 27.1 39.8 L27.05 39.75 Q26.15 39 25 39 23.75 39 22.9 39.75 L22.85 39.8 Q22 40.65 22 41.8 M20 43 L17 43 17 41 20 41 20.7 40.7 21 40 20.7 39.3 Q20.4 39 20 39 L16 39 Q15.6 39 15.3 39.3 15 39.6 15 40 L15 48 Q15 48.4 15.3 48.7 L16 49 20 49 20.7 48.7 21 48 20.7 47.3 Q20.4 47 20 47 L17 47 17 45 20 45 20.7 44.7 21 44 20.7 43.3 Q20.4 43 20 43"/>
  </g>
</svg>