<svg width="64" height="64" xmlns="http://www.w3.org/2000/svg" xmlns:xlink="http://www.w3.org/1999/xlink">
  <defs/>
  <g>
    <path stroke="none" fill="#FFFFFF" d="M41 44 L38 44 38 47 35 47 35 34 41 34 Q43.05 34 44.5 35.45 46 36.95 46 39 46 41.05 44.5 42.5 L46 47 43 47 42 44 42 43.9 41 44 M38 41 L41.05 41 Q41.85 41 42.4 40.4 43 39.85 43 39 43 38.15 42.4 37.55 41.85 37 41 37 L38 37 38 41 M20 13 Q15 13 15 18 L15 46 Q15 51 20 51 L44 51 Q49 51 49 46 L49 33.95 Q49 25.3 42.8 19.15 36.7 13 28 13 L20 13 M20 10 L28 10 Q37.95 10 44.95 17 52 24.05 52 33.95 L52 46 Q52 54 44 54 L20 54 Q12 54 12 46 L12 18 Q12 10 20 10 M19 33 L19 30 32 30 32 34 23 44 32 44 32 47 19 47 19 43 28 33 19 33"/>
  </g>
</svg>