<svg width="64" height="64" xmlns="http://www.w3.org/2000/svg" xmlns:xlink="http://www.w3.org/1999/xlink">
  <defs/>
  <g>
    <path stroke="none" fill="#FFFFFF" d="M18 15 Q13 15 13 20 L13 44 Q13 49 18 49 L46 49 Q51 49 51 44 L51 28 Q51 22.65 47.2 18.85 43.35 15 38 15 L18 15 M18 12 L38 12 Q44.6 12 49.3 16.7 54 21.4 54 28 L54 44 Q54 52 46 52 L18 52 Q10 52 10 44 L10 20 Q10 16.45 11.6 14.45 13.05 12.65 15.85 12.2 L18 12 M24 22 L34.2 22 Q35.75 22.05 37 22.8 L38.2 23.7 38.25 23.75 Q40 25.5 40 28 L40 30 Q40 32.45 38.25 34.2 L38.2 34.25 38.1 34.35 40 42 36 42 34.5 36 34 36 28 36 28 42 24 42 24 22 M28 26 L28 32 34 32 Q34.8 32 35.35 31.45 L35.45 31.35 Q36 30.8 36 30 L36 28 Q36 27.15 35.45 26.6 L35.4 26.6 Q34.8 26 34 26 L28 26"/>
  </g>
</svg>