<svg width="64" height="64" xmlns="http://www.w3.org/2000/svg" xmlns:xlink="http://www.w3.org/1999/xlink">
  <defs/>
  <g>
    <path stroke="none" fill="#FFFFFF" d="M24 22 L24 42 28 42 28 36 34 36 34.5 36 36 42 40 42 38.1 34.35 38.2 34.25 38.25 34.2 Q40 32.45 40 30 L40 28 Q40 25.5 38.25 23.75 L38.2 23.7 37 22.8 Q35.75 22.05 34.2 22 L24 22 M28 26 L34 26 Q34.8 26 35.4 26.6 L35.45 26.6 Q36 27.15 36 28 L36 30 Q36 30.8 35.45 31.35 L35.35 31.45 Q34.8 32 34 32 L28 32 28 26 M18 12 L38 12 Q44.6 12 49.3 16.7 54 21.4 54 28 L54 44 Q54 52 46 52 L18 52 Q10 52 10 44 L10 20 Q10 16.45 11.6 14.45 13.05 12.65 15.85 12.2 L18 12"/>
  </g>
</svg>