<svg width="64" height="64" xmlns="http://www.w3.org/2000/svg" xmlns:xlink="http://www.w3.org/1999/xlink">
  <defs/>
  <g>
    <path stroke="none" fill="#FFFFFF" d="M38 41 L38 37 41 37 Q41.85 37 42.4 37.55 43 38.15 43 39 43 39.85 42.4 40.4 41.85 41 41.05 41 L38 41 M41 44 L42 43.9 42 44 43 47 46 47 44.5 42.5 Q46 41.05 46 39 46 36.95 44.5 35.45 43.05 34 41 34 L35 34 35 47 38 47 38 44 41 44 M20 10 L28 10 Q37.95 10 44.95 17 52 24.05 52 33.95 L52 46 Q52 54 44 54 L20 54 Q12 54 12 46 L12 18 Q12 10 20 10 M19 33 L28 33 19 43 19 47 32 47 32 44 23 44 32 34 32 30 19 30 19 33"/>
  </g>
</svg>