<svg width="64" height="64" xmlns="http://www.w3.org/2000/svg" xmlns:xlink="http://www.w3.org/1999/xlink">
  <defs/>
  <g>
    <path stroke="none" fill="#FFFFFF" d="M44 10 Q52 10 52 18 L52 46 Q52 54 44 54 L20 54 Q12 54 12 46 L12 33.95 Q12 24.05 19.05 17 26.05 10 36 10 L44 10 M44 13 L36 13 Q27.3 13 21.2 19.15 15 25.3 15 33.95 L15 46 Q15 51 20 51 L44 51 Q49 51 49 46 L49 18 Q49 13 44 13 M39 44 L45 44 45 47 36 47 36 34 39 34 39 44 M20 33 L20 30 33 30 33 34 24 44 33 44 33 47 20 47 20 43 29 33 20 33"/>
  </g>
</svg>