<svg width="64" height="64" xmlns="http://www.w3.org/2000/svg" xmlns:xlink="http://www.w3.org/1999/xlink">
  <defs/>
  <g>
    <path stroke="none" fill="#FFFFFF" d="M15 16 L15 48 Q15 53 20 53 L44 53 Q49 53 49 48 L49 16 Q49 11 44 11 L20 11 Q15 11 15 16 M20 8 L44 8 Q52 8 52 16 L52 48 Q52 56 44 56 L20 56 Q12 56 12 48 L12 16 Q12 8 20 8 M34 22 Q36.45 22 38.2 23.7 L38.25 23.75 Q40 25.5 40 28 40 30.3 38.45 32 40 33.65 40 36 40 38.45 38.25 40.2 L38.2 40.25 Q36.45 42 34 42 L25 42 24 41 24 23 25 22 34 22 M28 38 L34 38 Q34.8 38 35.35 37.45 L35.45 37.35 Q36 36.8 36 36 36 35.15 35.45 34.6 L35.4 34.6 Q34.85 34.05 34.15 34 L28 34 28 38 M28 26 L28 30 34.15 30 Q34.8 29.95 35.35 29.45 L35.45 29.35 Q36 28.8 36 28 36 27.15 35.45 26.6 L35.4 26.6 Q34.8 26 34 26 L28 26"/>
  </g>
</svg>