<svg width="64" height="64" xmlns="http://www.w3.org/2000/svg" xmlns:xlink="http://www.w3.org/1999/xlink">
  <defs/>
  <g>
    <path stroke="none" fill="#FFFFFF" d="M56 32 Q56 42 48.95 48.95 42 56 32 56 22.05 56 15 48.95 8 42 8 32 8 22.05 15 15 22.05 8 32 8 42 8 48.95 15 56 22.05 56 32 M32 11 Q23.3 11 17.15 17.15 11 23.3 11 32 11 40.7 17.05 46.75 L17.15 46.85 18.5 48.1 Q24.25 53 32 53 40.75 53 46.85 46.85 53 40.75 53 32 53 23.3 46.85 17.15 40.75 11 32 11 M33.5 27.4 Q33.1 27 32.5 27 L30.95 27 30.85 27 Q30.55 27.05 30.3 27.3 30 27.6 30 28 L26 28 26.1 27 Q26.35 25.6 27.4 24.5 L27.5 24.4 Q28.9 23.05 30.85 23 L32.5 23 Q34.75 23 36.35 24.6 L36.4 24.65 37.4 26 Q38.65 29.35 36.45 31.55 L31 37 38 37 38 41 30.95 41 30.85 41 26 41 26 36 33 29.45 Q34.25 28.15 33.5 27.4"/>
  </g>
</svg>