<svg width="64" height="64" xmlns="http://www.w3.org/2000/svg" xmlns:xlink="http://www.w3.org/1999/xlink">
  <defs/>
  <g>
    <path stroke="none" fill="#FFFFFF" d="M56 32 Q56 40.25 49 46.1 41.95 52 32 52 22.05 52 15 46.1 8 40.25 8 32 8 23.75 15 17.85 22.05 12 32 12 41.95 12 49 17.85 56 23.75 56 32 M47.1 20.15 Q40.85 14.95 32 15 23.15 14.95 16.95 20.15 11.05 25.1 11 32 11.05 38.9 16.95 43.8 23.15 49.05 32 49 40.85 49.05 47.1 43.8 52.95 38.9 53 32 52.95 25.1 47.1 20.15 M24 33 L24 30.45 24.05 30.45 Q24.25 27.55 26.4 25.4 28.85 23 32.2 23 35.6 23 38.05 25.4 39.35 26.75 40 28.35 L36.15 29.9 35.15 28.35 Q33.9 27.1 32.2 27.1 30.5 27.1 29.35 28.35 28.15 29.45 28.1 31.1 L28.1 32.85 Q28.15 34.5 29.35 35.7 30.5 36.9 32.2 36.9 33.9 36.9 35.15 35.7 L36.15 34.15 40 35.65 Q39.35 37.25 38.05 38.55 L36.35 39.9 Q34.5 41 32.2 41 29.95 41 28.1 39.9 L26.4 38.55 Q24.05 36.2 24 33"/>
  </g>
</svg>