<svg width="64" height="64" xmlns="http://www.w3.org/2000/svg" xmlns:xlink="http://www.w3.org/1999/xlink">
  <defs/>
  <g>
    <path stroke="none" fill="#FFFFFF" d="M47.1 20.15 Q40.85 14.95 32 15 23.15 14.95 16.95 20.15 11.05 25.1 11 32 11.05 38.9 16.95 43.8 23.15 49.05 32 49 40.85 49.05 47.1 43.8 52.95 38.9 53 32 52.95 25.1 47.1 20.15 M56 32 Q56 40.25 49 46.1 41.95 52 32 52 22.05 52 15 46.1 8 40.25 8 32 8 23.75 15 17.85 22.05 12 32 12 41.95 12 49 17.85 56 23.75 56 32 M39 37 L45 37 45 40 36 40 36 27 39 27 39 37 M20 26 L20 23 33 23 33 27 24 37 33 37 33 40 20 40 20 36 29 26 20 26"/>
  </g>
</svg>