<svg width="64" height="64" xmlns="http://www.w3.org/2000/svg" xmlns:xlink="http://www.w3.org/1999/xlink">
  <defs/>
  <g>
    <path stroke="none" fill="#FFFFFF" d="M53 32 Q53 26.65 49.2 22.85 45.35 19 40 19 L24 19 Q18.65 19 14.85 22.85 11 26.65 11 32 11 37.35 14.85 41.2 18.65 45 24 45 L40 45 Q45.35 45 49.2 41.2 53 37.35 53 32 M24 16 L40 16 Q46.6 16 51.3 20.7 56 25.4 56 32 56 38.6 51.3 43.3 46.6 48 40 48 L24 48 Q17.4 48 12.7 43.3 8 38.6 8 32 8 25.4 12.7 20.7 17.4 16 24 16 M30 33 L33.05 33 Q33.85 33 34.4 32.4 35 31.85 35 31 35 30.15 34.4 29.55 33.85 29 33 29 L30 29 30 33 M33 36 L30 36 30 39 27 39 27 26 33 26 Q35.05 26 36.5 27.45 38 28.95 38 31 38 33.05 36.5 34.5 L38 39 35 39 34 36 34 35.9 33 36"/>
  </g>
</svg>