<svg width="64" height="64" xmlns="http://www.w3.org/2000/svg" xmlns:xlink="http://www.w3.org/1999/xlink">
  <defs/>
  <g>
    <path stroke="none" fill="#FFFFFF" d="M51.9 15.65 L51.9 15.6 51.5 15.2 51.4 15.15 50.95 15 13 15 Q12.75 15 12.55 15.15 L12.45 15.2 12.2 15.5 12.05 15.75 12 15.95 12 16.05 13.6 48.05 13.95 48.75 14.6 49 49.35 49 50.05 48.75 50.35 48.05 52 16.05 51.9 15.65 M55 16.2 L53.35 48.2 Q53.25 49.8 52.1 50.9 50.95 52 49.35 52 L14.6 52 Q13 52 11.85 50.9 10.7 49.8 10.6 48.2 L9 16.2 Q8.9 15.1 9.5 14.15 10 13.15 10.95 12.6 11.9 12 13 12 L50.95 12 Q52.05 12 53 12.6 53.95 13.15 54.5 14.15 55.05 15.1 55 16.2 M24 23 L40 23 40 27 30 37 40 37 40 41 24 41 24 37 34 27 24 27 24 23"/>
  </g>
</svg>