<svg width="64" height="64" xmlns="http://www.w3.org/2000/svg" xmlns:xlink="http://www.w3.org/1999/xlink">
  <defs/>
  <g>
    <path stroke="none" fill="#FFFFFF" d="M24 16 L40 16 Q46.6 16 51.3 20.7 56 25.4 56 32 56 38.6 51.3 43.3 46.6 48 40 48 L24 48 Q17.4 48 12.7 43.3 8 38.6 8 32 8 25.4 12.7 20.7 17.4 16 24 16 M33 36 L34 35.9 34 36 35 39 38 39 36.5 34.5 Q38 33.05 38 31 38 28.95 36.5 27.45 35.05 26 33 26 L27 26 27 39 30 39 30 36 33 36 M30 33 L30 29 33 29 Q33.85 29 34.4 29.55 35 30.15 35 31 35 31.85 34.4 32.4 33.85 33 33.05 33 L30 33"/>
  </g>
</svg>