<svg width="64" height="64" xmlns="http://www.w3.org/2000/svg" xmlns:xlink="http://www.w3.org/1999/xlink">
  <defs/>
  <g>
    <path stroke="none" fill="#FFFFFF" d="M56 32 Q56 40.25 49 46.1 41.95 52 32 52 L26.25 51.45 Q19.9 50.2 15 46.1 8 40.25 8 32 8 23.75 15 17.85 22.05 12 32 12 41.95 12 49 17.85 53.55 21.7 55.15 26.5 56 29.1 56 32 M24 33 Q24.05 36.1 26.25 38.4 L26.4 38.55 28.1 39.9 Q29.95 41 32.2 41 34.5 41 36.35 39.9 L38.05 38.55 Q39.35 37.25 40 35.65 L36.1 34.15 35.15 35.7 Q33.9 36.9 32.2 36.9 30.5 36.9 29.35 35.7 28.15 34.5 28.1 32.85 L28.1 31.1 Q28.15 29.45 29.35 28.35 30.5 27.1 32.2 27.1 33.9 27.1 35.15 28.35 35.8 29 36.1 29.9 L40 28.35 39 26.5 38.05 25.4 Q35.6 23 32.2 23 28.8 23 26.4 25.4 24.25 27.55 24.05 30.45 L24 30.45 24 33"/>
  </g>
</svg>