<svg width="64" height="64" xmlns="http://www.w3.org/2000/svg" xmlns:xlink="http://www.w3.org/1999/xlink">
  <defs/>
  <g>
    <path stroke="none" fill="#FFFFFF" d="M20 8 L44 8 Q52 8 52 16 L52 48 Q52 56 44 56 L20 56 Q12 56 12 48 L12 16 Q12 8 20 8 M34 22 L25 22 24 23 24 41 25 42 34 42 Q36.45 42 38.2 40.25 L38.25 40.2 38.6 39.85 Q40 38.2 40 36 40 33.65 38.45 32 40 30.3 40 28 40 25.5 38.25 23.75 L38.2 23.7 Q36.45 22 34 22 M28 26 L34 26 Q34.8 26 35.4 26.6 L35.45 26.6 Q36 27.15 36 28 36 28.8 35.45 29.35 L35.35 29.45 Q34.8 29.95 34.15 30 L28 30 28 26 M28 38 L28 34 34.15 34 Q34.85 34.05 35.4 34.6 L35.45 34.6 Q36 35.15 36 36 36 36.8 35.45 37.35 L35.35 37.45 Q34.8 38 34 38 L28 38"/>
  </g>
</svg>