<svg width="64" height="64" xmlns="http://www.w3.org/2000/svg" xmlns:xlink="http://www.w3.org/1999/xlink">
  <defs/>
  <g>
    <path stroke="none" fill="#FFFFFF" d="M56 32 Q56 42 48.95 48.95 42 56 32 56 22.05 56 15 48.95 10.8 44.8 9.15 39.5 8 36 8 32 8 22.05 15 15 22.05 8 32 8 38.35 8 43.5 10.85 46.45 12.45 48.95 15 56 22.05 56 32 M33.5 27.4 Q34.25 28.15 33 29.45 L26 36 26 41 30.85 41 30.95 41 38 41 38 37 31 37 36.45 31.55 Q38.65 29.35 37.4 26 L36.4 24.65 36.35 24.6 Q34.75 23 32.5 23 L30.85 23 Q28.9 23.05 27.5 24.4 L27.4 24.5 Q26.35 25.6 26.1 27 L26 28 30 28 Q30 27.6 30.3 27.3 30.55 27.05 30.85 27 L30.95 27 32.5 27 Q33.1 27 33.5 27.4"/>
  </g>
</svg>