<svg width="64" height="64" xmlns="http://www.w3.org/2000/svg" xmlns:xlink="http://www.w3.org/1999/xlink">
  <defs/>
  <g>
    <path stroke="none" fill="#FFFFFF" d="M38 34 L38 30 41 30 Q41.85 30 42.4 30.55 43 31.15 43 32 43 32.85 42.4 33.4 41.85 34 41.05 34 L38 34 M41 37 L42 36.9 42 37 43 40 46 40 44.5 35.5 Q46 34.05 46 32 46 29.95 44.5 28.45 43.05 27 41 27 L35 27 35 40 38 40 38 37 41 37 M56 32 Q56 40.25 49 46.1 41.95 52 32 52 22.05 52 15 46.1 8 40.25 8 32 8 23.75 15 17.85 22.05 12 32 12 41.95 12 49 17.85 56 23.75 56 32 M19 26 L28 26 19 36 19 40 32 40 32 37 23 37 32 27 32 23 19 23 19 26"/>
  </g>
</svg>