<svg width="64" height="64" xmlns="http://www.w3.org/2000/svg" xmlns:xlink="http://www.w3.org/1999/xlink">
  <defs/>
  <g>
    <path stroke="none" fill="#FFFFFF" d="M41 37 L38 37 38 40 35 40 35 27 41 27 Q43.05 27 44.5 28.45 46 29.95 46 32 46 34.05 44.5 35.5 L46 40 43 40 42 37 42 36.9 41 37 M38 34 L41.05 34 Q41.85 34 42.4 33.4 43 32.85 43 32 43 31.15 42.4 30.55 41.85 30 41 30 L38 30 38 34 M56 32 Q56 40.25 49 46.1 41.95 52 32 52 22.05 52 15 46.1 8 40.25 8 32 8 23.75 15 17.85 22.05 12 32 12 41.95 12 49 17.85 56 23.75 56 32 M19 26 L19 23 32 23 32 27 23 37 32 37 32 40 19 40 19 36 28 26 19 26 M47.1 20.15 Q40.85 14.95 32 15 23.15 14.95 16.95 20.15 11.05 25.1 11 32 11.05 38.9 16.95 43.8 23.15 49.05 32 49 40.85 49.05 47.1 43.8 52.95 38.9 53 32 52.95 25.1 47.1 20.15"/>
  </g>
</svg>