<svg width="64" height="64" xmlns="http://www.w3.org/2000/svg" xmlns:xlink="http://www.w3.org/1999/xlink">
  <defs/>
  <g>
    <path stroke="none" fill="#FFFFFF" d="M56 32 Q56 41.65 49.45 48.45 L48.95 48.95 Q42 56 32 56 22.05 56 15 48.95 L14.5 48.45 Q8 41.65 8 32 8 22.05 15 15 L15.95 14.1 Q22.7 8 32 8 41.35 8 48 14.1 L48.95 15 Q56 22.05 56 32 M20.6 30.55 Q20 31.1 20 31.95 L20 33.15 Q20 33.95 20.6 34.55 21.15 35.1 22 35.1 L24 35.1 24 41.05 24 41.15 Q24.05 41.95 24.6 42.5 25.15 43 26 43 L38 43 Q38.85 43 39.45 42.5 L40 41.15 40 41.05 40 35.1 42 35.1 Q42.85 35.1 43.45 34.55 44 33.95 44 33.15 L44 31.95 Q44 31.1 43.45 30.55 L33.45 20.6 Q32.85 20 32 20 31.15 20 30.6 20.6 L20.6 30.55 M29 38 L29 31.95 35 31.95 35 38 29 38"/>
  </g>
</svg>