<svg width="64" height="64" xmlns="http://www.w3.org/2000/svg" xmlns:xlink="http://www.w3.org/1999/xlink">
  <defs/>
  <g>
    <path stroke="none" fill="#FFFFFF" d="M56.05 12.15 L56.05 44.95 Q56.05 46.45 55.1 47.65 54.15 48.8 52.7 49.05 L12.7 55.95 10.45 55.65 Q9.35 55.15 8.7 54.1 8.05 53.05 8.05 51.9 L8.05 28 Q7.35 15.45 20.05 13.45 L51.4 8.05 Q52.55 7.85 53.65 8.35 54.75 8.85 55.4 9.85 56.05 10.9 56.05 12.15 M31 24 L31 26.4 25 36 31 36 31 40 19 40 19 37.6 25 28 19 28 19 24 31 24 M34 24 L38 24 38 36 46 36 46 40 34 40 34 24 M52.4 11.1 L51.95 11 51.9 11 20.55 16.4 Q10.5 17.95 11.05 27.85 L11.05 28 11.05 51.9 11.25 52.55 11.7 52.95 12.2 53 52.2 46.1 Q52.5 46.05 52.75 45.8 L53.05 44.95 53.05 12.15 52.9 11.5 52.4 11.1"/>
  </g>
</svg>