<svg width="64" height="64" xmlns="http://www.w3.org/2000/svg" xmlns:xlink="http://www.w3.org/1999/xlink">
  <defs/>
  <g>
    <path stroke="none" fill="#FFFFFF" d="M56.05 12.15 L56.05 44.95 Q56.05 46.45 55.1 47.65 54.15 48.8 52.7 49.05 L12.7 55.95 10.45 55.65 Q9.35 55.15 8.7 54.1 8.05 53.05 8.05 51.9 L8.05 28 Q7.35 15.45 20.05 13.45 L51.4 8.05 Q52.55 7.85 53.65 8.35 54.75 8.85 55.4 9.85 56.05 10.9 56.05 12.15 M34 24 L34 40 46 40 46 36 38 36 38 24 34 24 M31 24 L19 24 19 28 25 28 19 37.6 19 40 31 40 31 36 25 36 31 26.4 31 24"/>
  </g>
</svg>