<svg width="64" height="64" xmlns="http://www.w3.org/2000/svg" xmlns:xlink="http://www.w3.org/1999/xlink">
  <defs/>
  <g>
    <path stroke="none" fill="#FFFFFF" d="M15.7 10 L32.65 10 Q40.15 10.15 46 14.45 L48.95 17 Q55.65 23.7 56 32.95 L56 46 Q56 54 48 54 L16 54 Q9.45 54 8.25 48.6 8 47.45 8 46 L8 18 Q8 10.15 15.7 10 M25 24 L25 41 29 41 29 36 32 36 34.5 41 38.5 41 35.45 34.9 36.2 34.25 36.25 34.2 Q38 32.45 38 30 38 27.5 36.25 25.75 34.5 24 32 24 L25 24 M32 28 Q32.8 28 33.4 28.6 34 29.2 34 30 34 30.8 33.45 31.35 L33.35 31.45 Q32.8 32 32 32 L29 32 29 28 32 28"/>
  </g>
</svg>