<svg width="64" height="64" xmlns="http://www.w3.org/2000/svg" xmlns:xlink="http://www.w3.org/1999/xlink">
  <defs/>
  <g>
    <path stroke="none" fill="#FFFFFF" d="M56 32 Q56 42 48.95 48.95 42 56 32 56 22.05 56 15 48.95 8 42 8 32 8 22.05 15 15 22.05 8 32 8 42 8 48.95 15 56 22.05 56 32 M32 11 Q23.3 11 17.15 17.15 11 23.3 11 32 11 40.75 17.15 46.85 23.3 53 32 53 40.75 53 46.85 46.85 53 40.75 53 32 53 23.3 46.85 17.15 40.75 11 32 11 M20.6 30.55 L30.6 20.6 Q31.15 20 32 20 32.85 20 33.45 20.6 L43.45 30.55 Q44 31.1 44 31.95 L44 33.05 Q44 33.9 43.45 34.5 42.85 35.05 42 35.05 L40 35.05 40 41 Q40 41.85 39.45 42.45 38.85 43 38 43 L26 43 Q25.15 43 24.6 42.45 24 41.85 24 41 L24 35.05 22 35.05 Q21.15 35.05 20.6 34.5 20 33.9 20 33.05 L20 31.95 Q20 31.1 20.6 30.55 M28 39 L36 39 36 31 28 31 28 39"/>
  </g>
</svg>