<svg width="64" height="64" xmlns="http://www.w3.org/2000/svg" xmlns:xlink="http://www.w3.org/1999/xlink">
  <defs/>
  <g>
    <path stroke="none" fill="#FFFFFF" d="M11.65 11.1 L11.15 11.5 Q11 11.8 11 12.15 L11 44.95 Q11 45.4 11.3 45.8 L11.85 46.1 51.85 53 52.35 52.95 52.8 52.55 53 51.9 53 28 53 27.85 Q53.55 17.95 43.5 16.4 L12.15 11 12.1 11 11.65 11.1 M40.05 28 L37.05 28 37.05 32 40.05 32 Q40.85 32 41.4 31.45 L41.5 31.35 Q42.05 30.8 42.05 30 42.05 29.15 41.5 28.6 L41.45 28.6 Q40.85 28 40.05 28 M33.05 24 L40.25 24 Q41.8 24.05 43.05 24.8 L44.25 25.7 44.3 25.75 Q46.05 27.5 46.05 30 46.05 32.45 44.3 34.2 L44.25 34.25 44.15 34.35 47.05 40 42.05 40 40.05 36 37.05 36 37.05 40 33.05 40 33.05 24 M30.05 24 L30.05 26.4 24.05 36 30.05 36 30.05 40 18.05 40 18.05 37.6 24.05 28 18.05 28 18.05 24 30.05 24 M8 12.15 Q8 10.9 8.65 9.85 9.3 8.85 10.4 8.35 11.5 7.85 12.65 8.05 L44 13.45 Q56.7 15.45 56 28 L56 51.9 Q56 53.05 55.35 54.1 54.7 55.15 53.6 55.65 L51.35 55.95 11.35 49.05 Q9.9 48.8 8.95 47.65 8 46.45 8 44.95 L8 12.15"/>
  </g>
</svg>