<svg width="64" height="64" xmlns="http://www.w3.org/2000/svg" xmlns:xlink="http://www.w3.org/1999/xlink">
  <defs/>
  <g>
    <path stroke="none" fill="#FFFFFF" d="M46.85 17.15 Q40.75 11 32 11 23.3 11 17.15 17.15 11 23.3 11 32 11 40.75 17.15 46.85 23.3 53 32 53 40.75 53 46.85 46.85 53 40.75 53 32 53 23.3 46.85 17.15 M56 32 Q56 42 48.95 48.95 42 56 32 56 22.05 56 15 48.95 8 42 8 32 8 22.05 15 15 22.05 8 32 8 42 8 48.95 15 56 22.05 56 32 M41 36 Q41 38.45 39.25 40.2 L39.2 40.25 Q37.45 42 35 42 L25 42 25 22 35 22 Q37.45 22 39.2 23.75 L39.25 23.8 Q41 25.55 41 28 41 30.3 39.5 32 41 33.7 41 36 M37 28 Q37 27.2 36.45 26.65 L36.35 26.55 Q35.8 26 35 26 L29 26 29 30 35 30 Q35.8 30 36.4 29.4 L36.45 29.4 Q37 28.85 37 28 M37 36 Q37 35.15 36.45 34.6 L36.4 34.6 Q35.8 34 35 34 L29 34 29 38 35 38 Q35.8 38 36.35 37.45 L36.45 37.35 Q37 36.8 37 36"/>
  </g>
</svg>