<svg width="64" height="64" xmlns="http://www.w3.org/2000/svg" xmlns:xlink="http://www.w3.org/1999/xlink">
  <defs/>
  <g>
    <path stroke="none" fill="#FFFFFF" d="M40.05 28 Q40.85 28 41.45 28.6 L41.5 28.6 Q42.05 29.15 42.05 30 42.05 30.8 41.5 31.35 L41.4 31.45 Q40.85 32 40.05 32 L37.05 32 37.05 28 40.05 28 M8 12.15 Q8 10.9 8.65 9.85 9.3 8.85 10.4 8.35 11.5 7.85 12.65 8.05 L44 13.45 Q56.7 15.45 56 28 L56 51.9 Q56 53.05 55.35 54.1 54.7 55.15 53.6 55.65 L51.35 55.95 11.35 49.05 Q9.9 48.8 8.95 47.65 8 46.45 8 44.95 L8 12.15 M33.05 24 L33.05 40 37.05 40 37.05 36 40.05 36 42.05 40 47.05 40 44.15 34.35 44.25 34.25 44.3 34.2 Q46.05 32.45 46.05 30 46.05 27.5 44.3 25.75 L44.25 25.7 43.05 24.8 Q41.8 24.05 40.25 24 L33.05 24 M30.05 24 L18.05 24 18.05 28 24.05 28 18.05 37.6 18.05 40 30.05 40 30.05 36 24.05 36 30.05 26.4 30.05 24"/>
  </g>
</svg>