<svg width="64" height="64" xmlns="http://www.w3.org/2000/svg" xmlns:xlink="http://www.w3.org/1999/xlink">
  <defs/>
  <g>
    <path stroke="none" fill="#FFFFFF" d="M15.7 10 L32.65 10 Q42.15 10.2 48.95 17 55.65 23.7 56 32.95 L56 46 Q56 54 48 54 L16 54 Q8 54 8 46 L8 18 Q8 10.15 15.7 10 M32 28 L29 28 29 32 32 32 Q32.8 32 33.35 31.45 L33.45 31.35 Q34 30.8 34 30 34 29.2 33.4 28.6 32.8 28 32 28 M25 24 L32 24 Q34.5 24 36.25 25.75 38 27.5 38 30 38 32.45 36.25 34.2 L36.2 34.25 35.45 34.9 38.5 41 34.5 41 32 36 29 36 29 41 25 41 25 24 M11 18 L11 46 Q11 51 16 51 L48 51 Q53 51 53 46 L53 32.95 Q52.65 24.95 46.85 19.15 40.7 13 32 13 L16 13 Q11 13 11 18"/>
  </g>
</svg>